<?xml version="1.0" encoding="utf-8"?>
<svg xmlns="http://www.w3.org/2000/svg" height="48" width="48" viewBox="0 0 48 48">
  <g>
    <path id="path1" transform="rotate(0,24,24) translate(13.9485622644424,11) scale(0.8125,0.8125)  " fill="#DADADA" d="M8.3009625,26.065994L8.3009625,28.149994 8.3009625,30.106995 10.320982,30.106995 10.320982,28.149994 14.421994,28.149994 14.421994,30.106995 16.440975,30.106995 16.440975,28.149994 16.440975,26.065994 14.421994,26.065994 10.320982,26.065994z M0,24.172989L24.742001,24.172989 24.742001,32 0,32z M8.3009625,15.716995L8.3009625,17.798996 8.3009625,19.755997 10.320982,19.755997 10.320982,17.798996 14.421994,17.798996 14.421994,19.755997 16.440975,19.755997 16.440975,17.798996 16.440975,15.716995 14.421994,15.716995 10.320982,15.716995z M0,13.821991L24.742001,13.821991 24.742001,21.648987 0,21.648987z M8.3009625,4.67099L8.3009625,6.7549896 8.3009625,8.7119904 10.320982,8.7119904 10.320982,6.7549896 14.421994,6.7549896 14.421994,8.7119904 16.440975,8.7119904 16.440975,6.7549896 16.440975,4.67099 14.421994,4.67099 10.320982,4.67099z M7.4469591,0L17.545956,0 24.740963,3.470993 24.740963,11.29599 0,11.29599 0,3.470993z" />
  </g>
</svg>

